#!OML:ASF F:\VICON\USERDATA\INSTALL\rory3\rory3.ASF
:FULLY-SPECIFIED
:DEGREES
28
root 0.34162818216740737 17.92715539131696 3.1990206979297637 -1.8654698254253053 -0.6786556414272933 0.9877189147484882
lfemur 3.29460599509655 -1.6656605179288717 -24.30033787984389
ltibia 24.044519856079294
lfoot -9.805673013757357 3.879267244548939
ltoes -14.568545108016988
rfemur -29.26929495956884 2.314355510473829 19.182842589472912
rtibia 54.71579006370012
rfoot -11.201155601377323 -5.2981121107629905
rtoes 3.664300623331495
lowerback 10.121340637686504 -0.7459876023811159 -3.5048539630949813
upperback 0.41427519361847226 -1.4396279111271735 1.3989229469853566
thorax -5.188378829946705 -0.5853788859741414 3.5132802806887447
lowerneck -17.40005099971917 -2.7782056095131185 -1.2015116182098309
upperneck 20.775448138844748 -3.6058672746847638 1.2818088184120828
head 9.472547397639786 -1.7253358458254497 0.3115653508881435
lclavicle -2.663788638624961e-15 -3.270218897677394e-16
lhumerus -22.850526623895504 -4.107624450607128 83.32115869690845
lradius 32.27877148554957
lwrist 7.819556515310142
lhand -26.594903082726177 23.391571149550437
lfingers 7.1250199999999975
lthumb -0.028874940469964583 53.33187661280457
rclavicle -2.663788638624961e-15 -3.270218897677394e-16
rhumerus -31.606565527166044 -19.053792769409828 -81.28140191633437
rradius 23.993107306166667
rwrist 2.52724683098824
rhand -16.81718825617954 22.11595045305771
rfingers 7.1250199999999975
rthumb 9.41143051134557 -8.093580390827324
29
root 0.37654373011236236 17.987721030650224 4.471723695695889 -1.7330032622187117 -1.5398733391435762 0.4935711126485547
lfemur 5.968356891902186 -1.5094987933694166 -23.929748857668585
ltibia 21.881664642455732
lfoot -5.647683356895471 0.7209070275412017
ltoes -16.16680421264018
rfemur -29.42154051098816 3.2798231095795924 20.14159805066761
rtibia 50.24865407531188
rfoot -11.535806553092499 -4.298768894348088
rtoes 1.9692122400835104
lowerback 9.943336937614236 -0.8957235614166045 -3.118822789856104
upperback 0.34036503335876445 -1.53255409626839 1.6898553597668489
thorax -5.133971229125205 -0.641080961929892 3.712116729343379
lowerneck -17.38001059085634 -2.7015894807190968 -1.2771516321083483
upperneck 20.98691854000115 -3.478660492606444 1.1035146539374976
head 9.553436164561166 -1.6811074252764304 0.27596606119308964
lclavicle -2.406558350377524e-15 -1.5544625665915309e-16
lhumerus -22.881314452999366 -3.4930416706369902 82.97629107456062
lradius 33.19002272262547
lwrist 8.376548929426844
lhand -26.436400254907284 23.514105396124013
lfingers 7.1250199999999975
lthumb 0.12417338698467573 53.44834124000943
rclavicle -2.406558350377524e-15 -1.5544625665915309e-16
rhumerus -32.00101216593313 -19.09735992910398 -80.92802576929368
rradius 24.43866653479127
rwrist 2.857690987351565
rhand -16.787665107537517 22.19138331173537
rfingers 7.1250199999999975
rthumb 9.439847866273663 -8.091683449897495
30
root 0.39925708995107934 18.048590103423795 5.220757089729277 -1.6548384438300787 -2.5786688725672344 0.15981192266993194
lfemur 8.021406689667685 -1.6198366763180267 -23.796493395277114
ltibia 19.994522767091233
lfoot -1.026057118245939 -2.5005093544550143
ltoes -15.65066217274074
rfemur -29.303252624932938 3.853270036087825 20.873553831897503
rtibia 45.77635189297769
rfoot -11.184071770726447 -2.754247091670636
rtoes 0.6830785201299858
lowerback 9.812918877355159 -1.0219209493812036 -2.7939103069033555
upperback 0.2521031520886359 -1.6160508173057853 1.8933638298808821
thorax -5.112269454066868 -0.6910733045408034 3.8180709971942517
lowerneck -17.317195409457987 -2.6243376393182074 -1.3491654956912906
upperneck 21.181716791905778 -3.356704954519334 0.8994621676448173
head 9.613340575447777 -1.6383704627688418 0.23816321713081595
lclavicle -2.3570621981094717e-15 -1.2243173838944248e-16
lhumerus -23.10779487593846 -3.143228504639641 82.53224668589131
lradius 33.6435647537923
lwrist 8.252843567190098
lhand -26.104776123854766 23.412842882080604
lfingers 7.1250199999999975
lthumb 0.4444344714292866 53.343824646609875
rclavicle -2.3570621981094717e-15 -1.2243173838944248e-16
rhumerus -32.51411568744069 -19.545591047917952 -80.63081812262351
rradius 25.026791114383514
rwrist 3.5047509365522433
rhand -16.814641091273717 22.09363826407979
rfingers 7.1250199999999975
rthumb 9.413786797831449 -8.206572349893161
31
root 0.10005466439889157 18.234940098045072 5.9864281595000675 1.7450293597029938 -1.8551572172883841 -0.47653007216655374
lfemur 10.61325664063466 -1.1565230136246902 -24.56490588466667
ltibia 25.863659600051687
lfoot 8.75785909247485 -7.964907731281716
ltoes -19.414793031099144
rfemur -37.451096057407625 2.352607323037824 23.369551630240615
rtibia 54.16660766558562
rfoot -5.156093850700138 -1.1551264937185435
rtoes -4.469208614013585
lowerback 12.287365439316641 -1.0993107190681417 -2.288042172499459
upperback -0.7781594801747744 -1.6416985332184084 2.2124515969719285
thorax -7.516563749330713 -0.6459671996823335 4.271045435464986
lowerneck -19.45877692631374 -2.4143883735221694 -1.5281518040133109
upperneck 17.794735716857545 -3.170372080369506 1.618836541343437
head 8.786115056107628 -1.4368132454672096 0.44380410428440936
lclavicle -1.894224695702078e-15 9.423782233801584e-16
lhumerus -29.20798751469144 -11.204808400503673 89.2411632535507
lradius 79.4928730170449
lwrist 22.245442460002977
lhand -24.695167701323996 12.574394547992949
lfingers 7.125019999999999
lthumb 1.8058222076907269 42.50883214795186
rclavicle -1.894224695702078e-15 9.423782233801584e-16
rhumerus -48.69655952046136 -7.050059288281211 -89.14158083696312
rradius 68.10318156662309
rwrist -3.6845227832719094
rhand -16.16505513571477 31.056046820837278
rfingers 7.125019999999999
rthumb 10.040308330298265 0.8766527274212959
32
root 0.16874263743221435 18.33780935187505 7.543862130304404 1.9465721517486345 -2.317030616909806 -0.3710862634389085
lfemur 12.018528840256256 -1.890460158330566 -25.024483062524332
ltibia 25.7205112113242
lfoot 13.186209264666273 -10.361647196610072
ltoes -16.759450337583186
rfemur -36.51860926997164 2.82040868529669 23.764346287786868
rtibia 44.70086751262227
rfoot -4.817330558852756 -0.4925659190878626
rtoes -6.818136853680183
lowerback 12.057204659983654 -1.3066281808963192 -2.075800172583346
upperback -0.9144030332991024 -1.862683850111571 2.337384087535381
thorax -7.4583517393043905 -0.7618604315951016 4.291920208084534
lowerneck -19.4713427785717 -2.3773117774514185 -1.603864407289037
upperneck 17.993643668818805 -3.0819303093934343 1.441333175458817
head 8.850131118960682 -1.4108743201641138 0.39453457689724386
lclavicle -1.94974313403202e-15 9.034529662940667e-16
lhumerus -29.387079122874425 -11.702953311599483 88.90750415188437
lradius 79.37301288608316
lwrist 21.55408589722585
lhand -24.75024556956085 12.301929307800677
lfingers 7.125019999999999
lthumb 1.7526656820428625 42.24234518389281
rclavicle -1.94974313403202e-15 9.034529662940667e-16
rhumerus -49.2383558759672 -7.927733228740046 -88.34159524710583
rradius 68.82044797857483
rwrist -2.9925179865191724
rhand -16.004423471812952 31.272266953213656
rfingers 7.125019999999999
rthumb 10.195235035944266 1.119124227167457
33
root 0.2501626189484382 18.41327245610762 9.576852297096407 2.1165021292516446 -2.6069641425056815 -0.047148345565366956
lfemur 12.534716423621461 -2.973295201628055 -25.704570915371395
ltibia 25.981282706061634
lfoot 15.505906763316366 -11.849297083109176
ltoes -13.970666462814535
rfemur -35.236227653528616 3.0055105648248093 23.806217658076825
rtibia 36.2551305159745
rfoot -4.4997743345123755 -0.8148746580755724
rtoes -8.280532976340357
lowerback 11.824663174186442 -1.5230277921843514 -2.03168599249559
upperback -0.9706780029786612 -2.137395800257074 2.3191022827254786
thorax -7.350319662724638 -0.9011141760610533 4.270879741254924
lowerneck -19.424757395784393 -2.374059574479327 -1.719029469327227
upperneck 18.104096617622613 -3.0430739650103384 1.3374604299625448
head 8.88170633563105 -1.4050541424064225 0.37298776401507205
lclavicle -2.10066195143909e-15 7.976403021632079e-16
lhumerus -29.697349439733966 -12.263520177205823 88.62437357220476
lradius 78.30278718410392
lwrist 20.515535226766723
lhand -24.689262784408495 12.39683034679504
lfingers 7.125019999999999
lthumb 1.8116050158983221 42.346270125481816
rclavicle -2.10066195143909e-15 7.976403021632079e-16
rhumerus -49.512092401336915 -9.216169244339818 -87.56556286958052
rradius 69.49996040597009
rwrist -2.2788821509675343
rhand -16.059458544051427 31.61244509691842
rfingers 7.125019999999999
rthumb 10.142102750249766 1.425311576901245
